<svg width="12" height="12" viewBox="0 0 12 12" fill="none" xmlns="http://www.w3.org/2000/svg">
<path d="M10.9991 6.02087C11.0505 3.31059 8.8025 0.999998 6.01959 0.999998C3.21384 1.0019 1.0153 3.21542 1.00008 5.96757C0.984848 8.79395 3.25001 10.9808 5.97772 10.9999C8.81773 11.0208 11.041 8.65121 10.9991 6.02087Z" fill="#FAFAFA"/>
<path d="M1.91566 8.27626C1.78241 7.96983 1.65488 7.67101 1.51592 7.35317C1.60539 7.33033 1.65107 7.30558 1.69295 7.30939C2.33062 7.34745 2.96829 7.42359 3.60406 7.41788C4.31216 7.41217 5.02216 7.38742 5.72074 7.22374C6.4612 7.05054 7.18834 6.83928 7.88121 6.52524C8.05253 6.4472 8.21813 6.35775 8.36089 6.28542C8.69781 6.52904 8.99856 6.7917 9.33929 6.98012C9.6724 7.16474 10.0474 7.27132 10.4281 7.42168C10.35 7.73192 10.232 8.0098 10.0569 8.29148C9.3431 8.24581 8.79108 7.90512 8.35138 7.38362C8.04491 7.52065 7.77081 7.65769 7.48338 7.76808C6.87617 8.00028 6.2423 8.13732 5.59511 8.20393C5.14018 8.24961 4.68334 8.27626 4.2265 8.301C3.78489 8.32384 3.34328 8.34478 2.90167 8.34287C2.5933 8.33907 2.27923 8.301 1.91566 8.27626Z" fill="#2F78DE"/>
<path d="M9.19653 9.38778C8.88055 9.28119 8.56837 9.17651 8.32473 8.95954C8.17245 8.8225 8.03159 8.81489 7.84885 8.86437C7.27019 9.02044 6.69153 9.18983 6.10335 9.30213C5.5856 9.4011 5.05643 9.43536 4.52916 9.48294C4.08945 9.52291 3.64784 9.54575 3.20813 9.56288C3.10534 9.56668 2.98162 9.53814 2.89786 9.48104C2.57617 9.25645 2.36108 8.9367 2.12124 8.57317C2.23354 8.55794 2.30397 8.53891 2.3763 8.54081C2.84076 8.55223 3.30711 8.56936 3.77157 8.58459C4.84323 8.62075 5.90348 8.51417 6.93898 8.23819C7.37108 8.124 7.78794 7.9508 8.24097 7.79282C8.66926 8.20203 9.25934 8.37713 9.87037 8.56556C9.70476 8.91767 9.47254 9.16509 9.19653 9.38778Z" fill="#2F78DE"/>
<path d="M8.93575 9.63901C8.20671 10.1967 7.43008 10.5297 6.5678 10.6554C5.36479 10.8305 4.30264 10.4498 3.31473 9.77034C3.67068 9.77034 4.02663 9.76272 4.38259 9.77224C5.18967 9.79127 5.98914 9.75321 6.76767 9.52291C7.10839 9.42204 7.44531 9.31355 7.78223 9.19935C7.91928 9.15367 8.0392 9.15557 8.16674 9.226C8.34757 9.32306 8.53411 9.40871 8.71685 9.50197C8.77776 9.53433 8.83296 9.5743 8.93575 9.63901Z" fill="#2F78DE"/>
</svg>
